{"title":"Hercules {2014} - SCAMRip - {Hindi Audio} - x264 - 1CD - AC-3 -","uid":10684451,"size":464418481,"categoryP":"video","categoryS":"movies","magnet":"?xt=urn:btih:01d7cfc650dcb92a685c1601e8e5b96de153160e&amp;dn=Hercules+%7B2014%7D+-+SCAMRip+-+%7BHindi+Audio%7D+-+x264+-+1CD+-+AC-3+-+&amp;tr=udp%3A%2F%2Ftracker.openbittorrent.com%3A80&amp;tr=udp%3A%2F%2Fopen.demonii.com%3A1337&amp;tr=udp%3A%2F%2Ftracker.coppersurfer.tk%3A6969&amp;tr=udp%3A%2F%2Fexodus.desync.com%3A6969","seeders":2,"leechers":0,"uploader":"inovai","files":17,"time":1407062513,"description":"Hercules {2014} - SCAMRip - {Hindi Audio} - x264 - 1CD - AC-3 - Cool_Candy\n\nCover: \n &lt;a href=&quot;\nhttp://s30.postimg.org/spx51ugvl/hercules_movie_2014_poster_570x846.jpg&quot; rel=&quot;nofollow&quot; target=&quot;_NEW&quot;&gt;\nhttp://s30.postimg.org/spx51ugvl/hercules_movie_2014_poster_570x846.jpg&lt;/a&gt;\n\nScreenshots:\n &lt;a href=&quot;\nhttp://img.primetimeshow.in/share.php?id=6715_53DDF54A&quot; rel=&quot;nofollow&quot; target=&quot;_NEW&quot;&gt;\nhttp://img.primetimeshow.in/share.php?id=6715_53DDF54A&lt;/a&gt;\n &lt;a href=&quot;\nhttp://img.primetimeshow.in/share.php?id=4D42_53DDF54A&quot; rel=&quot;nofollow&quot; target=&quot;_NEW&quot;&gt;\nhttp://img.primetimeshow.in/share.php?id=4D42_53DDF54A&lt;/a&gt;\n &lt;a href=&quot;\nhttp://img.primetimeshow.in/share.php?id=C1A1_53DDF54A&quot; rel=&quot;nofollow&quot; target=&quot;_NEW&quot;&gt;\nhttp://img.primetimeshow.in/share.php?id=C1A1_53DDF54A&lt;/a&gt;\n &lt;a href=&quot;\nhttp://img.primetimeshow.in/share.php?id=AF83_53DDF54A&quot; rel=&quot;nofollow&quot; target=&quot;_NEW&quot;&gt;\nhttp://img.primetimeshow.in/share.php?id=AF83_53DDF54A&lt;/a&gt;\n &lt;a href=&quot;\nhttp://img.primetimeshow.in/share.php?id=CB57_53DDF54A&quot; rel=&quot;nofollow&quot; target=&quot;_NEW&quot;&gt;\nhttp://img.primetimeshow.in/share.php?id=CB57_53DDF54A&lt;/a&gt;\n\nGeneral Info:\n\nComplete name : Hercules {2014} - SCAMRip - {Hindi Audio} - x264 - 1CD - AC-3 - Cool_Candy.mkv\n\nFormat : Matroska\nFormat version : Version 4 / Version 2\nFile size : 439 MiB\nDuration : 1h 26mn\nOverall bit rate : 708 Kbps\nWriting application : Lavf55.19.104\nWriting library : Lavf55.19.104\n\n\n\nVideo\n\n\nID : 1\nFormat : AVC\nFormat/Info : Advanced Video Codec\nFormat profile : &lt;a class=&quot;__cf_email__&quot; href=&quot;/cdn-cgi/l/email-protection&quot; data-cfemail=&quot;b6f4d7c5d3dadfd8d3f6fa879885&quot;&gt;[email&amp;#160;protected]&lt;/a&gt;&lt;script cf-hash='f9e31' type=&quot;text/javascript&quot;&gt;\n/* &lt;![CDATA[ */!function(){try{var t=&quot;currentScript&quot;in document?document.currentScript:function(){for(var t=document.getElementsByTagName(&quot;script&quot;),e=t.length;e--;)if(t[e].getAttribute(&quot;cf-hash&quot;))return t[e]}();if(t&amp;&amp;t.previousSibling){var e,r,n,i,c=t.previousSibling,a=c.getAttribute(&quot;data-cfemail&quot;);if(a){for(e=&quot;&quot;,r=parseInt(a.substr(0,2),16),n=2;a.length-n;n+=2)i=parseInt(a.substr(n,2),16)^r,e+=String.fromCharCode(i);e=document.createTextNode(e),c.parentNode.replaceChild(e,c)}}}catch(u){}}();/* ]]&gt; */&lt;/script&gt;\nFormat settings, CABAC : No\nFormat settings, ReFrames : 2 frames\nCodec ID : V_MPEG4/ISO/AVC\nDuration : 1h 26mn\nBit rate : 512 Kbps\nWidth : 608 pixels\nHeight : 256 pixels\nDisplay aspect ratio : 3.168\nOriginal display aspect ratio : 3.167\nFrame rate mode : Constant\nFrame rate : 23.976 fps\nColor space : YUV\nChroma subsampling : 4:2:0\nBit depth : 8 bits\nScan type : Progressive\nBits/(Pixel*Frame) : 0.137\nStream size : 311 MiB (71%)\nWriting library : x264 core 140 r2377 1ca7bb9\nEncoding settings : Cool_Candy\nDefault : Yes\nForced : No\n\n\n\nAudio\n\nID : 2\nFormat : AC-3\nFormat/Info : Audio Coding 3\nMode extension : CM (complete main)\nFormat settings, Endianness : Big\nCodec ID : A_AC3\nDuration : 1h 26mn\nBit rate mode : Constant\nBit rate : 192 Kbps\nChannel(s) : 2 channels\nChannel positions : Front: L R\nSampling rate : 48.0 KHz\nBit depth : 16 bits\nCompression mode : Lossy\nDelay relative to video : -26ms\nStream size : 119 MiB (27%)\nDefault : Yes\nForced : No\n\nThanks to Cool_candy\n\nSeed Please after download!!\n","torrent":{"xt":"urn:btih:01d7cfc650dcb92a685c1601e8e5b96de153160e","amp;dn":"Hercules+%7B2014%7D+-+SCAMRip+-+%7BHindi+Audio%7D+-+x264+-+1CD+-+AC-3+-+","amp;tr":["udp%3A%2F%2Ftracker.openbittorrent.com%3A80","udp%3A%2F%2Fopen.demonii.com%3A1337","udp%3A%2F%2Ftracker.coppersurfer.tk%3A6969","udp%3A%2F%2Fexodus.desync.com%3A6969"],"infoHash":"01d7cfc650dcb92a685c1601e8e5b96de153160e","infoHashBuffer":{"type":"Buffer","data":[1,215,207,198,80,220,185,42,104,92,22,1,232,229,185,109,225,83,22,14]},"announce":[],"urlList":[]}}